<svg width="57" height="56" viewBox="0 0 57 56" fill="none" xmlns="http://www.w3.org/2000/svg">
<rect x="0.666992" width="56" height="56" rx="28" fill="#FFD400"/>
<path d="M33.5482 20.3454C31.477 21.174 29.2587 21.7132 26.943 21.913C26.2755 21.9706 25.5998 22 24.917 22H24.167C21.2675 22 18.917 24.3505 18.917 27.25C18.917 29.8496 20.8064 32.0079 23.287 32.4266C23.6212 33.7956 24.085 35.1138 24.6646 36.3674C25.1287 37.3712 26.3388 37.6875 27.2473 37.163L27.9036 36.784C28.7837 36.2759 29.0693 35.1913 28.6757 34.3159C28.4408 33.7935 28.2312 33.2574 28.0484 32.709C29.9658 32.9671 31.8089 33.4588 33.5482 34.1546C34.2739 31.9852 34.667 29.6635 34.667 27.25C34.667 24.8365 34.2739 22.5148 33.5482 20.3454Z" fill="#262626"/>
<path d="M34.9276 19.7407C35.7311 22.0964 36.167 24.6223 36.167 27.25C36.167 29.8777 35.7311 32.4036 34.9276 34.7593V34.7593C34.8724 34.9211 34.8157 35.0821 34.7571 35.2422C34.6147 35.6312 34.8146 36.0619 35.2036 36.2043C35.5926 36.3467 36.0233 36.1468 36.1657 35.7578C36.3057 35.3753 36.4366 34.9884 36.558 34.5973C37.0816 32.9106 37.4297 31.1469 37.581 29.3278C38.0979 28.7893 38.417 28.0567 38.417 27.25C38.417 26.4434 38.0979 25.7107 37.581 25.1723C37.4297 23.3532 37.0816 21.5895 36.558 19.9027C36.4366 19.5117 36.3057 19.1247 36.1657 18.7422C36.0233 18.3532 35.5926 18.1533 35.2036 18.2957C34.8146 18.4381 34.6147 18.8689 34.7571 19.2578C34.8157 19.4179 34.8724 19.579 34.9276 19.7407V19.7407Z" fill="#262626"/>
</svg>
