<svg width="57" height="56" viewBox="0 0 57 56" fill="none" xmlns="http://www.w3.org/2000/svg">
<rect x="0.333008" width="56" height="56" rx="28" fill="#FFD400"/>
<path fill-rule="evenodd" clip-rule="evenodd" d="M25.333 20.5C25.6679 20.5 25.9622 20.722 26.0542 21.044L26.8673 23.8901C27.2233 25.1359 28.1971 26.1097 29.4429 26.4657L32.289 27.2789C32.611 27.3709 32.833 27.6651 32.833 28C32.833 28.3349 32.611 28.6291 32.289 28.7211L29.4429 29.5343C28.1971 29.8903 27.2233 30.8641 26.8673 32.1099L26.0542 34.956C25.9622 35.278 25.6679 35.5 25.333 35.5C24.9981 35.5 24.7039 35.278 24.6119 34.956L23.7987 32.1099C23.4427 30.8641 22.4689 29.8903 21.2232 29.5343L18.377 28.7211C18.055 28.6291 17.833 28.3349 17.833 28C17.833 27.6651 18.055 27.3709 18.377 27.2789L21.2232 26.4657C22.4689 26.1097 23.4427 25.1359 23.7987 23.8901L24.6119 21.044C24.7039 20.722 24.9981 20.5 25.333 20.5Z" fill="#262626"/>
<path fill-rule="evenodd" clip-rule="evenodd" d="M34.333 17.5C34.6772 17.5 34.9771 17.7342 35.0606 18.0681L35.3195 19.1036C35.5546 20.0441 36.2889 20.7784 37.2294 21.0135L38.2649 21.2724C38.5988 21.3559 38.833 21.6558 38.833 22C38.833 22.3442 38.5988 22.6441 38.2649 22.7276L37.2294 22.9865C36.2889 23.2216 35.5546 23.9559 35.3195 24.8964L35.0606 25.9319C34.9771 26.2658 34.6772 26.5 34.333 26.5C33.9889 26.5 33.6889 26.2658 33.6054 25.9319L33.3465 24.8964C33.1114 23.9559 32.3771 23.2216 31.4366 22.9865L30.4011 22.7276C30.0672 22.6441 29.833 22.3442 29.833 22C29.833 21.6558 30.0672 21.3559 30.4011 21.2724L31.4366 21.0135C32.3771 20.7784 33.1114 20.0441 33.3465 19.1036L33.6054 18.0681C33.6889 17.7342 33.9889 17.5 34.333 17.5Z" fill="#262626"/>
<path fill-rule="evenodd" clip-rule="evenodd" d="M32.833 31C33.1558 31 33.4424 31.2066 33.5445 31.5128L33.9388 32.6956C34.0881 33.1435 34.4395 33.4949 34.8874 33.6442L36.0702 34.0385C36.3764 34.1406 36.583 34.4272 36.583 34.75C36.583 35.0728 36.3764 35.3594 36.0702 35.4615L34.8874 35.8558C34.4395 36.0051 34.0881 36.3565 33.9388 36.8044L33.5445 37.9872C33.4424 38.2934 33.1558 38.5 32.833 38.5C32.5102 38.5 32.2236 38.2934 32.1215 37.9872L31.7273 36.8044C31.5779 36.3565 31.2265 36.0051 30.7786 35.8558L29.5958 35.4615C29.2896 35.3594 29.083 35.0728 29.083 34.75C29.083 34.4272 29.2896 34.1406 29.5958 34.0385L30.7786 33.6442C31.2265 33.4949 31.5779 33.1435 31.7273 32.6956L32.1215 31.5128C32.2236 31.2066 32.5102 31 32.833 31Z" fill="#262626"/>
</svg>
