<svg width="57" height="56" viewBox="0 0 57 56" fill="none" xmlns="http://www.w3.org/2000/svg">
<rect x="0.333008" width="56" height="56" rx="28" fill="#FFD400"/>
<path fill-rule="evenodd" clip-rule="evenodd" d="M35.782 24.4482L32.7208 26.9992C32.8704 27.6574 32.8704 28.3426 32.7208 29.0008L35.782 31.5518C36.85 29.3118 36.85 26.6882 35.782 24.4482ZM31.8848 35.449L29.3338 32.3878C28.6756 32.5374 27.9904 32.5374 27.3322 32.3878L24.7812 35.449C27.0212 36.517 29.6448 36.517 31.8848 35.449ZM20.884 31.5518L23.9452 29.0008C23.7956 28.3426 23.7956 27.6574 23.9452 26.9992L20.884 24.4482C19.816 26.6882 19.816 29.3118 20.884 31.5518ZM24.7812 20.551L27.3322 23.6122C27.9904 23.4626 28.6756 23.4626 29.3338 23.6122L31.8848 20.551C29.6448 19.483 27.0212 19.483 24.7812 20.551ZM33.4385 19.6912C34.0755 20.0833 34.6765 20.5549 35.2273 21.1057C35.7781 21.6565 36.2498 22.2576 36.6418 22.8945C38.5634 26.0163 38.5634 29.9837 36.6418 33.1055C36.2498 33.7424 35.7781 34.3435 35.2273 34.8943C34.6765 35.4451 34.0755 35.9167 33.4385 36.3088C30.3167 38.2304 26.3493 38.2304 23.2275 36.3088C22.5906 35.9167 21.9895 35.4451 21.4387 34.8943C20.8879 34.3435 20.4163 33.7424 20.0242 33.1055C18.1026 29.9837 18.1026 26.0163 20.0242 22.8945C20.4163 22.2576 20.8879 21.6565 21.4387 21.1057C21.9895 20.5549 22.5906 20.0833 23.2275 19.6912C26.3493 17.7696 30.3167 17.7696 33.4385 19.6912ZM30.4543 25.8787C30.1288 25.5531 29.7488 25.3191 29.3445 25.1747C28.692 24.9418 27.974 24.9418 27.3216 25.1747C26.9172 25.3191 26.5372 25.5531 26.2117 25.8787C25.8861 26.2042 25.6521 26.5842 25.5077 26.9885C25.2748 27.641 25.2748 28.359 25.5077 29.0115C25.6521 29.4158 25.8861 29.7958 26.2117 30.1213C26.5372 30.4469 26.9172 30.6809 27.3216 30.8253C27.974 31.0582 28.692 31.0582 29.3445 30.8253C29.7488 30.6809 30.1288 30.4469 30.4543 30.1213C30.7799 29.7958 31.0139 29.4158 31.1583 29.0115C31.3912 28.359 31.3912 27.641 31.1583 26.9885C31.0139 26.5842 30.7799 26.2042 30.4543 25.8787Z" fill="#262626"/>
</svg>
