<svg width="56" height="56" viewBox="0 0 56 56" fill="none" xmlns="http://www.w3.org/2000/svg">
<rect width="56" height="56" rx="28" fill="#FFD400"/>
<path d="M28 16.75C23.4437 16.75 19.75 20.4437 19.75 25C19.75 28.0508 21.4063 30.7138 23.8652 32.1405C24.5506 32.5382 24.9799 33.1484 24.9993 33.7626C25.01 34.1013 25.2466 34.3908 25.5764 34.4687C25.9278 34.5518 26.2859 34.6171 26.6496 34.6639C26.9732 34.7055 27.2502 34.4462 27.2502 34.12V29.4589C26.9309 29.4236 26.618 29.366 26.3132 29.2875C25.9121 29.1843 25.6706 28.7754 25.7739 28.3743C25.8771 27.9731 26.286 27.7316 26.6871 27.8349C27.1059 27.9427 27.5458 28.0002 28.0002 28.0002C28.4546 28.0002 28.8944 27.9427 29.3132 27.8349C29.7144 27.7316 30.1233 27.9731 30.2265 28.3743C30.3298 28.7754 30.0883 29.1843 29.6871 29.2875C29.3823 29.366 29.0695 29.4236 28.7502 29.4589V34.1199C28.7502 34.4462 29.0272 34.7054 29.3508 34.6638C29.7144 34.6171 30.0723 34.5518 30.4236 34.4687C30.7534 34.3908 30.99 34.1013 31.0007 33.7626C31.0201 33.1484 31.4494 32.5382 32.1348 32.1405C34.5937 30.7138 36.25 28.0508 36.25 25C36.25 20.4437 32.5563 16.75 28 16.75Z" fill="#262626"/>
<path fill-rule="evenodd" clip-rule="evenodd" d="M25.0131 35.8997C25.0903 35.4927 25.4828 35.2254 25.8898 35.3026C26.5727 35.4321 27.2781 35.5 28 35.5C28.7219 35.5 29.4273 35.4321 30.1102 35.3026C30.5172 35.2254 30.9097 35.4927 30.9869 35.8997C31.0641 36.3066 30.7967 36.6991 30.3898 36.7763C29.6151 36.9232 28.8162 37 28 37C27.1838 37 26.3849 36.9232 25.6102 36.7763C25.2033 36.6991 24.9359 36.3066 25.0131 35.8997Z" fill="#262626"/>
<path fill-rule="evenodd" clip-rule="evenodd" d="M25.7541 38.344C25.7972 37.932 26.1661 37.633 26.578 37.6761C27.0451 37.7249 27.5195 37.75 28 37.75C28.4805 37.75 28.9549 37.7249 29.422 37.6761C29.8339 37.633 30.2028 37.932 30.2459 38.344C30.289 38.7559 29.99 39.1248 29.578 39.1679C29.0592 39.2222 28.5327 39.25 28 39.25C27.4673 39.25 26.9408 39.2222 26.422 39.1679C26.01 39.1248 25.711 38.7559 25.7541 38.344Z" fill="#262626"/>
</svg>
