<svg width="57" height="56" viewBox="0 0 57 56" fill="none" xmlns="http://www.w3.org/2000/svg">
<rect x="0.666992" width="56" height="56" rx="28" fill="#FFD400"/>
<path d="M28.667 18.25C29.0812 18.25 29.417 18.5858 29.417 19V21.25C29.417 21.6642 29.0812 22 28.667 22C28.2528 22 27.917 21.6642 27.917 21.25V19C27.917 18.5858 28.2528 18.25 28.667 18.25Z" fill="#262626"/>
<path d="M24.167 28C24.167 25.5147 26.1817 23.5 28.667 23.5C31.1523 23.5 33.167 25.5147 33.167 28C33.167 30.4853 31.1523 32.5 28.667 32.5C26.1817 32.5 24.167 30.4853 24.167 28Z" fill="#262626"/>
<path d="M35.5613 22.1663C35.8542 21.8734 35.8542 21.3986 35.5613 21.1057C35.2684 20.8128 34.7936 20.8128 34.5007 21.1057L32.9097 22.6967C32.6168 22.9896 32.6168 23.4644 32.9097 23.7573C33.2026 24.0502 33.6775 24.0502 33.9703 23.7573L35.5613 22.1663Z" fill="#262626"/>
<path d="M38.417 28C38.417 28.4142 38.0812 28.75 37.667 28.75H35.417C35.0028 28.75 34.667 28.4142 34.667 28C34.667 27.5858 35.0028 27.25 35.417 27.25H37.667C38.0812 27.25 38.417 27.5858 38.417 28Z" fill="#262626"/>
<path d="M34.5006 34.8943C34.7935 35.1871 35.2683 35.1871 35.5612 34.8943C35.8541 34.6014 35.8541 34.1265 35.5612 33.8336L33.9702 32.2426C33.6773 31.9497 33.2025 31.9497 32.9096 32.2426C32.6167 32.5355 32.6167 33.0104 32.9096 33.3033L34.5006 34.8943Z" fill="#262626"/>
<path d="M28.667 34C29.0812 34 29.417 34.3358 29.417 34.75V37C29.417 37.4142 29.0812 37.75 28.667 37.75C28.2528 37.75 27.917 37.4142 27.917 37V34.75C27.917 34.3358 28.2528 34 28.667 34Z" fill="#262626"/>
<path d="M24.4245 33.3033C24.7174 33.0104 24.7174 32.5355 24.4245 32.2426C24.1316 31.9497 23.6567 31.9497 23.3638 32.2426L21.7728 33.8336C21.48 34.1265 21.48 34.6014 21.7728 34.8943C22.0657 35.1872 22.5406 35.1872 22.8335 34.8943L24.4245 33.3033Z" fill="#262626"/>
<path d="M22.667 28C22.667 28.4142 22.3312 28.75 21.917 28.75H19.667C19.2528 28.75 18.917 28.4142 18.917 28C18.917 27.5858 19.2528 27.25 19.667 27.25H21.917C22.3312 27.25 22.667 27.5858 22.667 28Z" fill="#262626"/>
<path d="M23.3637 23.7573C23.6566 24.0502 24.1315 24.0502 24.4244 23.7573C24.7173 23.4644 24.7173 22.9896 24.4244 22.6967L22.8334 21.1057C22.5405 20.8128 22.0656 20.8128 21.7727 21.1057C21.4798 21.3986 21.4798 21.8734 21.7727 22.1663L23.3637 23.7573Z" fill="#262626"/>
</svg>
