<svg width="63" height="62" viewBox="0 0 63 62" fill="none" xmlns="http://www.w3.org/2000/svg">
<rect x="0.5" width="62" height="62" rx="31" fill="#FFD400"/>
<path d="M25.5542 39.9802C26.6324 39.9802 27.5157 40.8823 27.5157 41.9967C27.5157 43.0979 26.6324 44 25.5542 44C24.4631 44 23.5797 43.0979 23.5797 41.9967C23.5797 40.8823 24.4631 39.9802 25.5542 39.9802ZM40.1678 39.9802C41.246 39.9802 42.1293 40.8823 42.1293 41.9967C42.1293 43.0979 41.246 44 40.1678 44C39.0767 44 38.1934 43.0979 38.1934 41.9967C38.1934 40.8823 39.0767 39.9802 40.1678 39.9802ZM19.6441 18.0114L22.7422 18.4876C23.1838 18.5686 23.5086 18.9387 23.5475 19.3898L23.7943 22.3615C23.8333 22.7873 24.171 23.1057 24.5867 23.1057H42.1295C42.9219 23.1057 43.4415 23.3843 43.9611 23.9946C44.4807 24.6049 44.5716 25.4805 44.4547 26.2751L43.2207 34.978C42.9869 36.651 41.584 37.8834 39.9343 37.8834H25.7623C24.0347 37.8834 22.6058 36.5316 22.4629 34.7804L21.2678 20.3184L19.3063 19.9735C18.7867 19.8806 18.423 19.3632 18.514 18.8326C18.6049 18.29 19.1115 17.9304 19.6441 18.0114ZM37.8559 28.0131H34.2577C33.7121 28.0131 33.2834 28.4509 33.2834 29.0081C33.2834 29.552 33.7121 30.0031 34.2577 30.0031H37.8559C38.4015 30.0031 38.8301 29.552 38.8301 29.0081C38.8301 28.4509 38.4015 28.0131 37.8559 28.0131Z" fill="#262626"/>
</svg>
