<svg width="52" height="53" viewBox="0 0 52 53" fill="none" xmlns="http://www.w3.org/2000/svg">
<rect y="0.5" width="52" height="52" rx="26" fill="#FFD400"/>
<path d="M16.25 16.75C15.8358 16.75 15.5 17.0858 15.5 17.5C15.5 17.9142 15.8358 18.25 16.25 18.25H17.6357C17.8056 18.25 17.9543 18.3642 17.998 18.5284L20.5558 28.1199C18.9418 28.5385 17.75 30.0051 17.75 31.75C17.75 32.1642 18.0858 32.5 18.5 32.5H34.25C34.6642 32.5 35 32.1642 35 31.75C35 31.3358 34.6642 31 34.25 31H19.378C19.6869 30.1261 20.5203 29.5 21.5 29.5H32.7183C33.0051 29.5 33.2668 29.3364 33.3925 29.0785C34.5277 26.749 35.5183 24.336 36.3527 21.8513C36.4191 21.6536 36.4002 21.4372 36.3005 21.254C36.2008 21.0708 36.0294 20.9374 35.8273 20.8858C31.0055 19.6544 25.9536 19 20.75 19C20.3922 19 20.0351 19.0031 19.6787 19.0093L19.4474 18.1419C19.2285 17.3211 18.4851 16.75 17.6357 16.75H16.25Z" fill="#262626"/>
<path d="M17.75 34.75C17.75 33.9216 18.4216 33.25 19.25 33.25C20.0784 33.25 20.75 33.9216 20.75 34.75C20.75 35.5784 20.0784 36.25 19.25 36.25C18.4216 36.25 17.75 35.5784 17.75 34.75Z" fill="#262626"/>
<path d="M30.5 34.75C30.5 33.9216 31.1716 33.25 32 33.25C32.8284 33.25 33.5 33.9216 33.5 34.75C33.5 35.5784 32.8284 36.25 32 36.25C31.1716 36.25 30.5 35.5784 30.5 34.75Z" fill="#262626"/>
</svg>
