<svg width="60" height="60" viewBox="0 0 60 60" fill="none" xmlns="http://www.w3.org/2000/svg">
<path d="M6.00098 53.9997C6.00098 50.848 6.62175 47.7271 7.82786 44.8153C9.03397 41.9035 10.8018 39.2578 13.0304 37.0292C15.259 34.8006 17.9047 33.0328 20.8166 31.8266C23.7284 30.6205 26.8492 29.9998 30.0009 29.9998V53.9997L6.00098 53.9997Z" fill="#1A1A1A"/>
<path d="M30.001 29.9998C30.001 33.1515 30.6218 36.2723 31.8279 39.1841C33.034 42.096 34.8018 44.7417 37.0304 46.9703C39.259 49.1989 41.9047 50.9667 44.8166 52.1728C47.7284 53.3789 50.8492 53.9997 54.001 53.9997L54.0009 29.9998L30.001 29.9998Z" fill="#FFD400"/>
<path d="M30.001 29.9997C30.001 26.848 29.3802 23.7271 28.1741 20.8153C26.968 17.9035 25.2001 15.2578 22.9715 13.0292C20.7429 10.8006 18.0972 9.03275 15.1854 7.82665C12.2736 6.62053 9.1527 5.99976 6.00098 5.99976L6.00098 29.9997H30.001Z" fill="#FFD400"/>
<path d="M54.001 5.99976C54.001 9.15148 53.3802 12.2723 52.1741 15.1841C50.968 18.096 49.2001 20.7417 46.9715 22.9703C44.7429 25.1989 42.0972 26.9667 39.1854 28.1728C36.2736 29.3789 33.1527 29.9997 30.001 29.9997L30.001 5.99976H54.001Z" fill="#1A1A1A"/>
</svg>
