<svg width="36" height="36" viewBox="0 0 36 36" fill="none" xmlns="http://www.w3.org/2000/svg">
<rect width="36" height="36" rx="18" fill="#262626"/>
<path d="M15.0334 24.5C21.0697 24.5 24.3722 19.4978 24.3722 15.1612C24.3722 15.0206 24.3691 14.8769 24.3628 14.7362C25.0052 14.2716 25.5597 13.6962 26 13.0369C25.4017 13.3031 24.7664 13.4769 24.1159 13.5525C24.8009 13.1419 25.3137 12.497 25.5594 11.7372C24.915 12.119 24.2104 12.3884 23.4756 12.5337C22.9806 12.0077 22.326 11.6594 21.6131 11.5427C20.9003 11.426 20.1688 11.5474 19.5318 11.8881C18.8949 12.2288 18.3879 12.7698 18.0892 13.4275C17.7906 14.0853 17.717 14.8231 17.8797 15.5269C16.575 15.4614 15.2986 15.1225 14.1333 14.5321C12.968 13.9417 11.9398 13.113 11.1153 12.0997C10.6963 12.8222 10.568 13.6771 10.7567 14.4907C10.9453 15.3044 11.4367 16.0156 12.1309 16.48C11.6098 16.4634 11.1 16.3231 10.6438 16.0706V16.1112C10.6433 16.8694 10.9054 17.6044 11.3855 18.1912C11.8657 18.778 12.5342 19.1804 13.2775 19.33C12.7947 19.4621 12.288 19.4813 11.7966 19.3862C12.0063 20.0383 12.4144 20.6086 12.9638 21.0176C13.5133 21.4265 14.1767 21.6537 14.8616 21.6675C13.6989 22.5807 12.2628 23.0761 10.7844 23.0737C10.5222 23.0733 10.2603 23.0573 10 23.0256C11.5019 23.9892 13.249 24.5009 15.0334 24.5Z" fill="white"/>
</svg>
