<svg width="174" height="44" viewBox="0 0 174 44" fill="none" xmlns="http://www.w3.org/2000/svg">
<rect width="44" height="44" rx="22" fill="#262626"/>
<g clip-path="url(#clip0_143_364)">
<path d="M32 22C32 16.4771 27.5229 12 22 12C16.4771 12 12 16.4771 12 22C12 26.9912 15.6568 31.1283 20.4375 31.8785V24.8906H17.8984V22H20.4375V19.7969C20.4375 17.2906 21.9305 15.9062 24.2146 15.9062C25.3084 15.9062 26.4531 16.1016 26.4531 16.1016V18.5625H25.1922C23.95 18.5625 23.5625 19.3334 23.5625 20.125V22H26.3359L25.8926 24.8906H23.5625V31.8785C28.3432 31.1283 32 26.9912 32 22Z" fill="white"/>
</g>
<rect x="65" width="44" height="44" rx="22" fill="#262626"/>
<path d="M83.2918 30.1246C90.8371 30.1246 94.9652 23.8719 94.9652 18.4512C94.9652 18.2754 94.9613 18.0957 94.9535 17.9199C95.7566 17.3392 96.4496 16.6198 97 15.7957C96.2521 16.1285 95.458 16.3458 94.6449 16.4402C95.5011 15.9271 96.1421 15.1209 96.4492 14.1711C95.6438 14.6484 94.763 14.9851 93.8445 15.1668C93.2257 14.5093 92.4075 14.0739 91.5164 13.928C90.6253 13.7821 89.711 13.9338 88.9148 14.3597C88.1186 14.7856 87.4848 15.4619 87.1115 16.2841C86.7382 17.1062 86.6462 18.0285 86.8496 18.9082C85.2187 18.8264 83.6233 18.4027 82.1667 17.6647C80.71 16.9267 79.4247 15.8908 78.3941 14.6242C77.8703 15.5273 77.71 16.596 77.9459 17.613C78.1817 18.6301 78.7959 19.5192 79.6637 20.0996C79.0122 20.0789 78.375 19.9035 77.8047 19.5879V19.6387C77.8041 20.5864 78.1317 21.5051 78.7319 22.2386C79.3321 22.9721 80.1678 23.4751 81.0969 23.6621C80.4934 23.8272 79.86 23.8513 79.2457 23.7324C79.5079 24.5475 80.018 25.2604 80.7048 25.7716C81.3916 26.2828 82.2209 26.5668 83.077 26.584C81.6237 27.7256 79.8285 28.3447 77.9805 28.3418C77.6527 28.3413 77.3253 28.3212 77 28.2817C78.8774 29.4861 81.0613 30.1258 83.2918 30.1246Z" fill="white"/>
<rect x="130" width="44" height="44" rx="22" fill="#262626"/>
<g clip-path="url(#clip1_143_364)">
<path d="M160.52 12H143.477C142.66 12 142 12.6445 142 13.4414V30.5547C142 31.3516 142.66 32 143.477 32H160.52C161.336 32 162 31.3516 162 30.5586V13.4414C162 12.6445 161.336 12 160.52 12ZM147.934 29.043H144.965V19.4961H147.934V29.043ZM146.449 18.1953C145.496 18.1953 144.727 17.4258 144.727 16.4766C144.727 15.5273 145.496 14.7578 146.449 14.7578C147.398 14.7578 148.168 15.5273 148.168 16.4766C148.168 17.4219 147.398 18.1953 146.449 18.1953ZM159.043 29.043H156.078V24.4023C156.078 23.2969 156.059 21.8711 154.535 21.8711C152.992 21.8711 152.758 23.0781 152.758 24.3242V29.043H149.797V19.4961H152.641V20.8008H152.68C153.074 20.0508 154.043 19.2578 155.484 19.2578C158.488 19.2578 159.043 21.2344 159.043 23.8047V29.043V29.043Z" fill="white"/>
</g>
<defs>
<clipPath id="clip0_143_364">
<rect width="20" height="20" fill="white" transform="translate(12 12)"/>
</clipPath>
<clipPath id="clip1_143_364">
<rect width="20" height="20" fill="white" transform="translate(142 12)"/>
</clipPath>
</defs>
</svg>
