<svg width="60" height="60" viewBox="0 0 60 60" fill="none" xmlns="http://www.w3.org/2000/svg">
<path d="M6.56983 28.1771L6.56888 28.1799C5.38746 31.673 4.79297 35.0487 4.79297 38.3047V47.4126C4.79297 48.7934 5.91226 49.9126 7.29297 49.9126H18.5618C19.9425 49.9126 21.0618 48.7934 21.0618 47.4126L21.0619 38.1957L21.0618 38.1916C21.027 34.0376 21.6893 30.255 23.041 26.8372C24.2025 23.9445 25.5927 21.1503 27.2118 18.4547C27.9067 17.2975 27.6027 15.7752 26.4622 15.0152L20.4355 10.9993C19.5203 10.3894 18.2909 10.438 17.4576 11.1977C15.2867 13.1771 13.3027 15.5145 11.5043 18.2068L11.5036 18.2078C9.43026 21.3285 7.78547 24.6519 6.56983 28.1771ZM33.4494 28.1771L33.4485 28.1799C32.267 31.673 31.6725 35.0487 31.6725 38.3047V47.4126C31.6725 48.7934 32.7918 49.9126 34.1725 49.9126H45.4414C46.8221 49.9126 47.9414 48.7934 47.9414 47.4126L47.9414 38.1957L47.9414 38.1915C47.9065 34.0375 48.5689 30.2547 49.9207 26.8369C51.0822 23.9443 52.4723 21.1502 54.0913 18.4547C54.7863 17.2975 54.4823 15.7752 53.3418 15.0152L47.3151 10.9993C46.3999 10.3894 45.1704 10.438 44.3372 11.1977C42.1663 13.1771 40.1823 15.5145 38.3839 18.2068L38.3832 18.2078C36.3098 21.3285 34.665 24.6519 33.4494 28.1771Z" fill="#FFE566" stroke="#FFE566"/>
</svg>
