<svg width="120" height="20" viewBox="0 0 120 20" fill="none" xmlns="http://www.w3.org/2000/svg">
<path d="M9.15861 1.30996C9.55219 0.697193 10.4478 0.697195 10.8414 1.30996L13.1986 4.97987C13.334 5.19071 13.5436 5.34302 13.786 5.40666L18.0047 6.51442C18.7091 6.69938 18.9859 7.55117 18.5247 8.11484L15.7628 11.4907C15.6042 11.6847 15.5241 11.9311 15.5385 12.1813L15.7886 16.5358C15.8303 17.2629 15.1058 17.7893 14.4272 17.5249L10.363 15.9415C10.1296 15.8505 9.87044 15.8505 9.63696 15.9415L5.57282 17.5249C4.89423 17.7893 4.16966 17.2629 4.21142 16.5358L4.46153 12.1813C4.4759 11.9311 4.39582 11.6847 4.23716 11.4907L1.47527 8.11484C1.01412 7.55117 1.29089 6.69938 1.99528 6.51442L6.21399 5.40666C6.45636 5.34302 6.66599 5.19071 6.80141 4.97987L9.15861 1.30996Z" fill="#FFCE22"/>
<path d="M34.1586 1.30996C34.5522 0.697193 35.4478 0.697195 35.8414 1.30996L38.1986 4.97987C38.334 5.19071 38.5436 5.34302 38.786 5.40666L43.0047 6.51442C43.7091 6.69938 43.9859 7.55117 43.5247 8.11484L40.7628 11.4907C40.6042 11.6847 40.5241 11.9311 40.5385 12.1813L40.7886 16.5358C40.8303 17.2629 40.1058 17.7893 39.4272 17.5249L35.363 15.9415C35.1296 15.8505 34.8704 15.8505 34.637 15.9415L30.5728 17.5249C29.8942 17.7893 29.1697 17.2629 29.2114 16.5358L29.4615 12.1813C29.4759 11.9311 29.3958 11.6847 29.2372 11.4907L26.4753 8.11484C26.0141 7.55117 26.2909 6.69938 26.9953 6.51442L31.214 5.40666C31.4564 5.34302 31.666 5.19071 31.8014 4.97987L34.1586 1.30996Z" fill="#FFCE22"/>
<path d="M59.1586 1.30996C59.5522 0.697193 60.4478 0.697195 60.8414 1.30996L63.1986 4.97987C63.334 5.19071 63.5436 5.34302 63.786 5.40666L68.0047 6.51442C68.7091 6.69938 68.9859 7.55117 68.5247 8.11484L65.7628 11.4907C65.6042 11.6847 65.5241 11.9311 65.5385 12.1813L65.7886 16.5358C65.8303 17.2629 65.1058 17.7893 64.4272 17.5249L60.363 15.9415C60.1296 15.8505 59.8704 15.8505 59.637 15.9415L55.5728 17.5249C54.8942 17.7893 54.1697 17.2629 54.2114 16.5358L54.4615 12.1813C54.4759 11.9311 54.3958 11.6847 54.2372 11.4907L51.4753 8.11484C51.0141 7.55117 51.2909 6.69938 51.9953 6.51442L56.214 5.40666C56.4564 5.34302 56.666 5.19071 56.8014 4.97987L59.1586 1.30996Z" fill="#FFCE22"/>
<path d="M84.1586 1.30996C84.5522 0.697193 85.4478 0.697195 85.8414 1.30996L88.1986 4.97987C88.334 5.19071 88.5436 5.34302 88.786 5.40666L93.0047 6.51442C93.7091 6.69938 93.9859 7.55117 93.5247 8.11484L90.7628 11.4907C90.6042 11.6847 90.5241 11.9311 90.5385 12.1813L90.7886 16.5358C90.8303 17.2629 90.1058 17.7893 89.4272 17.5249L85.363 15.9415C85.1296 15.8505 84.8704 15.8505 84.637 15.9415L80.5728 17.5249C79.8942 17.7893 79.1697 17.2629 79.2114 16.5358L79.4615 12.1813C79.4759 11.9311 79.3958 11.6847 79.2372 11.4907L76.4753 8.11484C76.0141 7.55117 76.2909 6.69938 76.9953 6.51442L81.214 5.40666C81.4564 5.34302 81.666 5.19071 81.8014 4.97987L84.1586 1.30996Z" fill="#FFCE22"/>
<path d="M109.159 1.30996C109.552 0.697193 110.448 0.697195 110.841 1.30996L113.199 4.97987C113.334 5.19071 113.544 5.34302 113.786 5.40666L118.005 6.51442C118.709 6.69938 118.986 7.55117 118.525 8.11484L115.763 11.4907C115.604 11.6847 115.524 11.9311 115.538 12.1813L115.789 16.5358C115.83 17.2629 115.106 17.7893 114.427 17.5249L110.363 15.9415C110.13 15.8505 109.87 15.8505 109.637 15.9415L105.573 17.5249C104.894 17.7893 104.17 17.2629 104.211 16.5358L104.462 12.1813C104.476 11.9311 104.396 11.6847 104.237 11.4907L101.475 8.11484C101.014 7.55117 101.291 6.69938 101.995 6.51442L106.214 5.40666C106.456 5.34302 106.666 5.19071 106.801 4.97987L109.159 1.30996Z" fill="#FFCE22"/>
</svg>
