<svg width="25" height="25" viewBox="0 0 25 25" fill="none" xmlns="http://www.w3.org/2000/svg">
<path fill-rule="evenodd" clip-rule="evenodd" d="M8.12451 6.5V7.25H6.13738C5.17784 7.25 4.37313 7.97444 4.27268 8.92872L3.00953 20.9287C2.89299 22.0358 3.76103 23 4.87422 23H20.375C21.4881 23 22.3562 22.0358 22.2397 20.9287L20.9765 8.92872C20.876 7.97444 20.0713 7.25 19.1118 7.25H17.1245V6.5C17.1245 4.01472 15.1098 2 12.6245 2C10.1392 2 8.12451 4.01472 8.12451 6.5ZM12.6245 3.5C10.9677 3.5 9.62451 4.84315 9.62451 6.5V7.25H15.6245V6.5C15.6245 4.84315 14.2814 3.5 12.6245 3.5ZM9.62451 11.75C9.62451 13.4069 10.9677 14.75 12.6245 14.75C14.2814 14.75 15.6245 13.4069 15.6245 11.75V11C15.6245 10.5858 15.9603 10.25 16.3745 10.25C16.7887 10.25 17.1245 10.5858 17.1245 11V11.75C17.1245 14.2353 15.1098 16.25 12.6245 16.25C10.1392 16.25 8.12451 14.2353 8.12451 11.75V11C8.12451 10.5858 8.4603 10.25 8.87451 10.25C9.28873 10.25 9.62451 10.5858 9.62451 11V11.75Z" fill="#262626"/>
</svg>
